<svg data-v-7f60a732="" data-v-3773c624="" aria-hidden="true" xmlns="http://www.w3.org/2000/svg" class="svg-icon timer-icon" viewBox="0 0 16 16"><path data-v-7f60a732="" d="M8.00389674,16 C12.4383829,16 16,12.4297521 16,8.00388916 C16,3.58580457 12.4617633,0 8.00389674,0 L7.91037506,0 C7.4661471,0 7.16220166,0.287797764 7.16220166,0.707826932 L7.16220166,3.61691784 C7.16220166,4.0758386 7.48952752,4.41808459 7.92596201,4.41808459 C8.35460302,4.41808459 8.67413541,4.0758386 8.67413541,3.61691784 L8.67413541,1.83568303 C11.7915246,2.16237239 14.1763273,4.79144385 14.1763273,8.00388916 C14.1763273,11.4341274 11.4641987,14.2109869 8.00389674,14.2109869 C4.53580127,14.2109869 1.82367267,11.4341274 1.82367267,8.00388916 C1.82367267,6.58823529 2.306868,5.26592124 3.10180224,4.21584832 C3.44471505,3.73359261 3.51485631,3.23578026 3.12518266,2.87797764 C2.71992207,2.52017501 2.09644423,2.56684492 1.69897711,3.10354886 C0.63127131,4.44919786 0,6.15264949 0,8.00388916 C0,12.4297521 3.56161715,16 8.00389674,16 Z M8.0428641,9.34175984 C8.76765709,9.34175984 9.34437409,8.76616432 9.34437409,8.04278075 C9.34437409,7.56830335 9.1105699,7.18716578 8.67413541,6.90714633 L5.11251827,4.54253768 C4.65270336,4.23918328 4.24744277,4.67476908 4.53580127,5.1181332 L6.90501705,8.68838114 C7.16999513,9.10841031 7.56746225,9.34175984 8.0428641,9.34175984 Z" fill-rule="nonzero"></path></svg>